<svg xmlns="http://www.w3.org/2000/svg" xmlns:xlink="http://www.w3.org/1999/xlink" width="529" zoomAndPan="magnify" viewBox="0 0 396.75 396.749985" height="529" preserveAspectRatio="xMidYMid meet" version="1.0"><defs><clipPath id="f911c84285"><path d="M 231 233 L 348 233 L 348 348.902344 L 231 348.902344 Z M 231 233 " clip-rule="nonzero"/></clipPath></defs><path fill="#efefef" d="M 172.074219 288.28125 C 169.722656 288.285156 167.371094 288.210938 165.023438 288.070312 C 162.671875 287.925781 160.328125 287.710938 157.992188 287.421875 C 155.65625 287.136719 153.332031 286.777344 151.019531 286.347656 C 148.703125 285.917969 146.40625 285.417969 144.121094 284.847656 C 141.839844 284.277344 139.574219 283.636719 137.332031 282.925781 C 135.085938 282.214844 132.867188 281.4375 130.671875 280.589844 C 128.472656 279.746094 126.304688 278.832031 124.164062 277.851562 C 122.023438 276.875 119.917969 275.828125 117.839844 274.71875 C 115.765625 273.613281 113.726562 272.441406 111.71875 271.207031 C 109.714844 269.972656 107.753906 268.675781 105.828125 267.324219 C 103.902344 265.96875 102.019531 264.554688 100.183594 263.085938 C 98.34375 261.613281 96.554688 260.089844 94.808594 258.507812 C 93.066406 256.929688 91.371094 255.296875 89.726562 253.613281 C 88.082031 251.929688 86.492188 250.195312 84.953125 248.414062 C 83.417969 246.632812 81.933594 244.804688 80.507812 242.929688 C 79.082031 241.058594 77.71875 239.144531 76.410156 237.1875 C 75.101562 235.230469 73.855469 233.234375 72.667969 231.203125 C 71.484375 229.167969 70.359375 227.101562 69.300781 225 C 68.242188 222.898438 67.25 220.765625 66.324219 218.601562 C 65.394531 216.4375 64.535156 214.246094 63.742188 212.03125 C 62.949219 209.816406 62.226562 207.578125 61.570312 205.316406 C 60.914062 203.054688 60.328125 200.777344 59.8125 198.480469 C 59.296875 196.183594 58.851562 193.875 58.476562 191.550781 C 58.101562 189.226562 57.800781 186.894531 57.570312 184.550781 C 57.339844 182.210938 57.179688 179.863281 57.09375 177.511719 C 57.007812 175.160156 56.992188 172.804688 57.050781 170.453125 C 57.109375 168.101562 57.238281 165.75 57.441406 163.40625 C 57.640625 161.0625 57.914062 158.722656 58.261719 156.394531 C 58.605469 154.066406 59.023438 151.753906 59.511719 149.449219 C 60 147.148438 60.554688 144.863281 61.183594 142.59375 C 61.8125 140.324219 62.507812 138.078125 63.273438 135.851562 C 64.039062 133.628906 64.875 131.425781 65.777344 129.253906 C 66.675781 127.078125 67.644531 124.933594 68.675781 122.820312 C 69.707031 120.703125 70.804688 118.621094 71.964844 116.574219 C 73.125 114.527344 74.347656 112.515625 75.632812 110.542969 C 76.914062 108.570312 78.257812 106.640625 79.660156 104.75 C 81.0625 102.859375 82.523438 101.015625 84.039062 99.214844 C 85.554688 97.414062 87.125 95.660156 88.746094 93.957031 C 90.371094 92.25 92.046875 90.597656 93.769531 88.996094 C 95.496094 87.394531 97.265625 85.847656 99.085938 84.355469 C 100.90625 82.863281 102.769531 81.429688 104.679688 80.050781 C 106.585938 78.671875 108.535156 77.351562 110.523438 76.09375 C 112.511719 74.835938 114.539062 73.640625 116.601562 72.503906 C 118.664062 71.371094 120.757812 70.300781 122.886719 69.296875 C 125.015625 68.289062 127.171875 67.351562 129.355469 66.476562 C 131.542969 65.605469 133.753906 64.800781 135.988281 64.0625 C 138.222656 63.324219 140.480469 62.65625 142.753906 62.058594 C 145.03125 61.457031 147.324219 60.929688 149.632812 60.472656 C 151.941406 60.011719 154.261719 59.625 156.59375 59.308594 C 158.925781 58.996094 161.265625 58.75 163.613281 58.578125 C 165.960938 58.40625 168.3125 58.308594 170.664062 58.277344 C 173.019531 58.25 175.371094 58.296875 177.722656 58.414062 C 180.074219 58.527344 182.417969 58.71875 184.757812 58.976562 C 187.097656 59.238281 189.425781 59.570312 191.742188 59.976562 C 194.0625 60.378906 196.367188 60.851562 198.65625 61.398438 C 200.945312 61.941406 203.21875 62.558594 205.46875 63.242188 C 207.722656 63.925781 209.949219 64.679688 212.15625 65.5 C 214.359375 66.324219 216.539062 67.210938 218.691406 68.167969 C 220.84375 69.121094 222.960938 70.140625 225.050781 71.226562 C 227.140625 72.3125 229.191406 73.460938 231.210938 74.671875 C 233.226562 75.882812 235.207031 77.15625 237.148438 78.488281 C 239.085938 79.820312 240.984375 81.210938 242.839844 82.660156 C 244.691406 84.109375 246.5 85.617188 248.261719 87.175781 C 250.027344 88.734375 251.738281 90.347656 253.402344 92.015625 C 255.398438 94.011719 257.320312 96.078125 259.167969 98.214844 C 261.011719 100.351562 262.777344 102.554688 264.460938 104.820312 C 266.144531 107.089844 267.742188 109.414062 269.253906 111.800781 C 270.765625 114.1875 272.1875 116.625 273.519531 119.113281 C 274.851562 121.605469 276.09375 124.140625 277.238281 126.722656 C 278.382812 129.300781 279.433594 131.921875 280.382812 134.582031 C 281.335938 137.238281 282.191406 139.929688 282.945312 142.652344 C 283.699219 145.375 284.351562 148.117188 284.902344 150.890625 C 285.453125 153.660156 285.902344 156.445312 286.25 159.246094 C 286.59375 162.050781 286.835938 164.863281 286.976562 167.683594 C 287.117188 170.503906 287.152344 173.324219 287.082031 176.148438 C 287.011719 178.972656 286.839844 181.789062 286.5625 184.601562 C 286.285156 187.410156 285.90625 190.207031 285.425781 192.988281 C 284.941406 195.773438 284.355469 198.53125 283.671875 201.273438 C 282.984375 204.011719 282.199219 206.722656 281.3125 209.402344 C 280.425781 212.085938 279.441406 214.730469 278.359375 217.339844 C 277.28125 219.949219 276.105469 222.515625 274.835938 225.035156 C 273.5625 227.558594 272.203125 230.03125 270.75 232.453125 C 269.296875 234.875 267.757812 237.242188 266.132812 239.550781 C 264.503906 241.859375 262.796875 244.101562 261.003906 246.285156 C 259.210938 248.46875 257.339844 250.582031 255.394531 252.625 C 253.445312 254.671875 251.425781 256.640625 249.332031 258.539062 C 247.238281 260.433594 245.078125 262.25 242.851562 263.984375 C 240.621094 265.722656 238.335938 267.375 235.984375 268.941406 C 233.636719 270.511719 231.234375 271.988281 228.773438 273.378906 C 226.316406 274.769531 223.8125 276.070312 221.257812 277.273438 C 218.703125 278.480469 216.109375 279.589844 213.472656 280.605469 C 210.839844 281.621094 208.167969 282.539062 205.464844 283.355469 C 202.761719 284.171875 200.035156 284.890625 197.277344 285.507812 C 194.523438 286.125 191.746094 286.636719 188.953125 287.050781 C 186.160156 287.464844 183.355469 287.773438 180.539062 287.976562 C 177.71875 288.183594 174.898438 288.285156 172.074219 288.28125 Z M 172.074219 83.609375 C 170.363281 83.605469 168.648438 83.652344 166.9375 83.746094 C 165.226562 83.839844 163.515625 83.984375 161.8125 84.175781 C 160.109375 84.367188 158.414062 84.609375 156.722656 84.898438 C 155.035156 85.1875 153.355469 85.527344 151.683594 85.910156 C 150.011719 86.296875 148.355469 86.730469 146.710938 87.210938 C 145.066406 87.691406 143.433594 88.21875 141.820312 88.792969 C 140.203125 89.367188 138.605469 89.988281 137.027344 90.652344 C 135.445312 91.320312 133.886719 92.03125 132.347656 92.785156 C 130.808594 93.539062 129.292969 94.339844 127.800781 95.179688 C 126.304688 96.023438 124.839844 96.90625 123.394531 97.832031 C 121.953125 98.757812 120.539062 99.726562 119.152344 100.734375 C 117.765625 101.742188 116.40625 102.789062 115.078125 103.871094 C 113.753906 104.957031 112.457031 106.078125 111.195312 107.238281 C 109.929688 108.398438 108.703125 109.59375 107.507812 110.824219 C 106.3125 112.050781 105.15625 113.316406 104.035156 114.613281 C 102.910156 115.90625 101.828125 117.234375 100.78125 118.59375 C 99.734375 119.953125 98.730469 121.339844 97.761719 122.753906 C 96.796875 124.171875 95.871094 125.613281 94.988281 127.082031 C 94.105469 128.550781 93.261719 130.042969 92.464844 131.5625 C 91.667969 133.078125 90.914062 134.617188 90.203125 136.179688 C 89.492188 137.738281 88.828125 139.316406 88.207031 140.917969 C 87.589844 142.515625 87.015625 144.128906 86.488281 145.761719 C 85.960938 147.390625 85.480469 149.039062 85.050781 150.695312 C 84.617188 152.355469 84.230469 154.023438 83.894531 155.707031 C 83.558594 157.386719 83.269531 159.074219 83.03125 160.773438 C 82.789062 162.472656 82.597656 164.175781 82.457031 165.882812 C 82.3125 167.589844 82.21875 169.300781 82.175781 171.015625 C 82.132812 172.730469 82.136719 174.441406 82.1875 176.15625 C 82.242188 177.871094 82.347656 179.582031 82.496094 181.289062 C 82.648438 182.996094 82.851562 184.699219 83.101562 186.394531 C 83.347656 188.089844 83.648438 189.777344 83.992188 191.457031 C 84.339844 193.136719 84.734375 194.804688 85.175781 196.460938 C 85.617188 198.117188 86.105469 199.757812 86.640625 201.386719 C 87.175781 203.015625 87.757812 204.628906 88.386719 206.222656 C 89.015625 207.816406 89.6875 209.394531 90.40625 210.949219 C 91.125 212.507812 91.890625 214.039062 92.695312 215.554688 C 93.5 217.066406 94.351562 218.554688 95.242188 220.019531 C 96.132812 221.484375 97.066406 222.921875 98.042969 224.332031 C 99.015625 225.742188 100.03125 227.125 101.082031 228.476562 C 102.136719 229.828125 103.226562 231.148438 104.355469 232.441406 C 105.488281 233.730469 106.652344 234.984375 107.851562 236.210938 C 109.054688 237.433594 110.289062 238.621094 111.558594 239.773438 C 112.828125 240.925781 114.128906 242.039062 115.460938 243.117188 C 116.796875 244.195312 118.15625 245.234375 119.550781 246.234375 C 120.945312 247.234375 122.363281 248.191406 123.8125 249.109375 C 125.257812 250.03125 126.730469 250.90625 128.230469 251.738281 C 129.726562 252.574219 131.246094 253.363281 132.792969 254.109375 C 134.335938 254.855469 135.898438 255.558594 137.480469 256.214844 C 139.066406 256.871094 140.664062 257.484375 142.285156 258.050781 C 143.902344 258.613281 145.535156 259.132812 147.183594 259.605469 C 148.832031 260.078125 150.492188 260.5 152.164062 260.878906 C 153.835938 261.253906 155.519531 261.582031 157.210938 261.863281 C 158.902344 262.144531 160.597656 262.375 162.304688 262.558594 C 164.007812 262.738281 165.71875 262.875 167.429688 262.960938 C 169.140625 263.042969 170.855469 263.078125 172.570312 263.066406 C 174.285156 263.054688 175.996094 262.992188 177.707031 262.878906 C 179.417969 262.769531 181.125 262.609375 182.824219 262.398438 C 184.527344 262.1875 186.222656 261.929688 187.90625 261.625 C 189.59375 261.320312 191.269531 260.964844 192.9375 260.5625 C 194.605469 260.160156 196.257812 259.710938 197.898438 259.210938 C 199.539062 258.714844 201.164062 258.171875 202.773438 257.582031 C 204.382812 256.992188 205.972656 256.355469 207.546875 255.671875 C 209.121094 254.992188 210.671875 254.265625 212.203125 253.496094 C 213.734375 252.726562 215.242188 251.910156 216.726562 251.054688 C 218.210938 250.199219 219.671875 249.296875 221.105469 248.359375 C 222.539062 247.417969 223.945312 246.4375 225.320312 245.414062 C 226.699219 244.394531 228.042969 243.335938 229.359375 242.234375 C 230.675781 241.136719 231.960938 240.003906 233.210938 238.832031 C 234.464844 237.660156 235.679688 236.453125 236.863281 235.210938 C 238.042969 233.96875 239.191406 232.695312 240.296875 231.386719 C 241.40625 230.078125 242.480469 228.742188 243.511719 227.375 C 244.542969 226.003906 245.535156 224.609375 246.488281 223.183594 C 247.441406 221.757812 248.351562 220.304688 249.21875 218.828125 C 250.089844 217.347656 250.914062 215.847656 251.699219 214.324219 C 252.480469 212.796875 253.21875 211.25 253.914062 209.683594 C 254.609375 208.117188 255.257812 206.53125 255.859375 204.925781 C 256.464844 203.320312 257.019531 201.699219 257.53125 200.066406 C 258.042969 198.429688 258.507812 196.777344 258.921875 195.113281 C 259.339844 193.453125 259.707031 191.777344 260.027344 190.09375 C 260.347656 188.410156 260.617188 186.71875 260.839844 185.019531 C 261.0625 183.320312 261.238281 181.613281 261.363281 179.902344 C 261.488281 178.195312 261.566406 176.480469 261.59375 174.769531 C 261.621094 173.054688 261.597656 171.339844 261.527344 169.628906 C 261.457031 167.914062 261.335938 166.207031 261.167969 164.5 C 261 162.792969 260.78125 161.09375 260.515625 159.398438 C 260.25 157.707031 259.933594 156.023438 259.570312 154.347656 C 259.207031 152.671875 258.796875 151.007812 258.339844 149.355469 C 257.882812 147.703125 257.375 146.066406 256.824219 144.441406 C 256.273438 142.820312 255.671875 141.214844 255.03125 139.625 C 254.386719 138.035156 253.695312 136.46875 252.960938 134.917969 C 252.226562 133.367188 251.449219 131.84375 250.628906 130.335938 C 249.808594 128.832031 248.941406 127.351562 248.035156 125.898438 C 247.128906 124.441406 246.183594 123.015625 245.195312 121.613281 C 244.207031 120.210938 243.179688 118.839844 242.113281 117.5 C 241.046875 116.15625 239.941406 114.847656 238.796875 113.570312 C 237.65625 112.289062 236.480469 111.046875 235.265625 109.835938 C 233.195312 107.761719 231.03125 105.800781 228.769531 103.941406 C 226.507812 102.082031 224.160156 100.339844 221.726562 98.714844 C 219.292969 97.085938 216.785156 95.582031 214.203125 94.199219 C 211.621094 92.816406 208.980469 91.566406 206.277344 90.445312 C 203.574219 89.320312 200.820312 88.335938 198.019531 87.484375 C 195.21875 86.632812 192.382812 85.917969 189.511719 85.34375 C 186.640625 84.769531 183.75 84.339844 180.835938 84.050781 C 177.921875 83.761719 175.003906 83.613281 172.074219 83.609375 Z M 172.074219 83.609375 " fill-opacity="1" fill-rule="nonzero"/><g clip-path="url(#f911c84285)"><path fill="#efefef" d="M 335.105469 349.007812 C 333.433594 349 331.824219 348.675781 330.28125 348.027344 C 328.738281 347.382812 327.375 346.464844 326.195312 345.28125 L 235.519531 254.664062 C 234.929688 254.078125 234.40625 253.4375 233.945312 252.75 C 233.484375 252.058594 233.09375 251.328125 232.777344 250.5625 C 232.460938 249.796875 232.21875 249.003906 232.058594 248.191406 C 231.894531 247.375 231.816406 246.554688 231.816406 245.722656 C 231.816406 244.894531 231.894531 244.070312 232.058594 243.257812 C 232.21875 242.441406 232.460938 241.652344 232.777344 240.886719 C 233.09375 240.117188 233.484375 239.390625 233.945312 238.699219 C 234.40625 238.007812 234.929688 237.371094 235.519531 236.78125 C 236.105469 236.195312 236.746094 235.671875 237.433594 235.210938 C 238.125 234.75 238.855469 234.359375 239.621094 234.042969 C 240.386719 233.722656 241.179688 233.484375 241.992188 233.320312 C 242.808594 233.160156 243.628906 233.078125 244.460938 233.078125 C 245.289062 233.078125 246.113281 233.160156 246.925781 233.320312 C 247.742188 233.484375 248.53125 233.722656 249.300781 234.042969 C 250.066406 234.359375 250.792969 234.75 251.484375 235.210938 C 252.175781 235.671875 252.8125 236.195312 253.402344 236.78125 L 344.015625 327.460938 C 344.894531 328.34375 345.625 329.335938 346.210938 330.433594 C 346.796875 331.535156 347.210938 332.695312 347.449219 333.917969 C 347.691406 335.140625 347.753906 336.371094 347.628906 337.613281 C 347.507812 338.851562 347.207031 340.046875 346.730469 341.199219 C 346.253906 342.351562 345.625 343.40625 344.835938 344.371094 C 344.046875 345.335938 343.132812 346.167969 342.097656 346.859375 C 341.066406 347.554688 339.953125 348.085938 338.761719 348.453125 C 337.570312 348.816406 336.351562 349.003906 335.105469 349.007812 Z M 335.105469 349.007812 " fill-opacity="1" fill-rule="nonzero"/></g></svg>