<svg xmlns="http://www.w3.org/2000/svg" xmlns:xlink="http://www.w3.org/1999/xlink" width="529" zoomAndPan="magnify" viewBox="0 0 396.75 396.749985" height="529" preserveAspectRatio="xMidYMid meet" version="1.0"><defs><clipPath id="92470e830e"><path d="M 42 49 L 354 49 L 354 348.898438 L 42 348.898438 Z M 42 49 " clip-rule="nonzero"/></clipPath></defs><g clip-path="url(#92470e830e)"><path fill="#efefef" d="M 336.71875 205.1875 L 323.984375 205.1875 L 323.984375 335.773438 C 323.929688 336.652344 323.789062 337.519531 323.5625 338.375 C 323.339844 339.226562 323.035156 340.050781 322.648438 340.84375 C 322.265625 341.636719 321.808594 342.386719 321.273438 343.089844 C 320.742188 343.792969 320.148438 344.441406 319.492188 345.027344 C 318.832031 345.617188 318.125 346.132812 317.367188 346.582031 C 316.605469 347.03125 315.8125 347.40625 314.980469 347.699219 C 314.148438 347.992188 313.292969 348.203125 312.421875 348.328125 C 311.546875 348.457031 310.671875 348.496094 309.789062 348.453125 L 234.558594 348.453125 L 234.558594 259.414062 C 234.558594 258.800781 234.5 258.199219 234.378906 257.597656 C 234.261719 257 234.085938 256.417969 233.851562 255.855469 C 233.617188 255.289062 233.332031 254.753906 232.992188 254.246094 C 232.652344 253.738281 232.269531 253.269531 231.835938 252.835938 C 231.40625 252.402344 230.933594 252.019531 230.425781 251.679688 C 229.917969 251.339844 229.382812 251.054688 228.820312 250.820312 C 228.253906 250.585938 227.675781 250.410156 227.074219 250.289062 C 226.476562 250.167969 225.871094 250.109375 225.261719 250.109375 L 170.679688 250.109375 C 170.066406 250.109375 169.460938 250.167969 168.863281 250.289062 C 168.265625 250.40625 167.683594 250.582031 167.117188 250.816406 C 166.554688 251.050781 166.019531 251.335938 165.511719 251.675781 C 165.003906 252.015625 164.53125 252.402344 164.101562 252.835938 C 163.667969 253.265625 163.285156 253.738281 162.945312 254.246094 C 162.605469 254.753906 162.320312 255.289062 162.085938 255.851562 C 161.851562 256.417969 161.675781 257 161.558594 257.597656 C 161.4375 258.195312 161.378906 258.800781 161.378906 259.414062 L 161.378906 348.449219 L 86.140625 348.449219 C 85.265625 348.492188 84.390625 348.453125 83.519531 348.328125 C 82.648438 348.203125 81.800781 347.996094 80.96875 347.707031 C 80.140625 347.414062 79.347656 347.042969 78.589844 346.597656 C 77.832031 346.148438 77.125 345.632812 76.46875 345.046875 C 75.816406 344.460938 75.222656 343.816406 74.691406 343.117188 C 74.164062 342.414062 73.707031 341.667969 73.324219 340.875 C 72.941406 340.082031 72.640625 339.261719 72.417969 338.410156 C 72.195312 337.558594 72.058594 336.695312 72.007812 335.816406 L 72.007812 205.1875 L 59.214844 205.1875 C 45.039062 205.1875 37.359375 191.839844 46.648438 183.273438 L 186.621094 53.871094 C 187.496094 53.128906 188.429688 52.472656 189.421875 51.894531 C 190.414062 51.320312 191.449219 50.835938 192.527344 50.441406 C 193.605469 50.046875 194.710938 49.75 195.839844 49.550781 C 196.96875 49.351562 198.109375 49.253906 199.253906 49.257812 C 200.402344 49.257812 201.539062 49.363281 202.667969 49.566406 C 203.796875 49.769531 204.902344 50.070312 205.976562 50.46875 C 207.054688 50.863281 208.085938 51.355469 209.074219 51.933594 C 210.066406 52.515625 210.996094 53.175781 211.871094 53.921875 C 257.695312 97.054688 303.539062 140.1875 349.402344 183.320312 C 358.519531 191.96875 350.84375 205.1875 336.71875 205.1875 Z M 336.71875 205.1875 " fill-opacity="1" fill-rule="nonzero"/></g></svg>