<svg xmlns="http://www.w3.org/2000/svg" xmlns:xlink="http://www.w3.org/1999/xlink" width="529" zoomAndPan="magnify" viewBox="0 0 396.75 396.749985" height="529" preserveAspectRatio="xMidYMid meet" version="1.0"><defs><clipPath id="41cac1a28f"><path d="M 49 49 L 347 49 L 347 348.902344 L 49 348.902344 Z M 49 49 " clip-rule="nonzero"/></clipPath></defs><g clip-path="url(#41cac1a28f)"><path fill="#efefef" d="M 64.941406 349.015625 L 331.164062 349.015625 C 340.210938 349.21875 347.691406 340.332031 345.925781 331.429688 C 338.886719 290.3125 326.339844 217.320312 319.351562 176.542969 C 318.144531 169.3125 311.929688 164.070312 304.570312 164.070312 L 283.933594 164.070312 C 302.75 108.496094 256.078125 47.714844 198.050781 49.101562 C 139.53125 48.210938 93.734375 107.949219 112.164062 164.070312 L 91.535156 164.070312 C 84.171875 164.070312 77.957031 169.3125 76.757812 176.519531 L 50.167969 331.476562 C 48.421875 340.316406 55.917969 349.242188 64.941406 349.015625 Z M 134.667969 339.019531 L 167.09375 276.847656 C 168.550781 274.214844 167.074219 270.621094 164.179688 269.777344 C 164.179688 269.777344 75.746094 241.601562 75.746094 241.601562 L 78.296875 226.707031 L 179.253906 258.828125 C 187.09375 266.808594 196.367188 275.828125 207.085938 267.683594 L 331.640625 307.316406 L 334.496094 323.96875 L 188.367188 277.472656 C 186.066406 276.734375 183.550781 277.769531 182.421875 279.921875 L 151.582031 339.019531 Z M 260.582031 209.054688 L 314.785156 209.054688 C 315.421875 212.738281 316.714844 220.339844 317.34375 224.050781 L 249.191406 224.050781 C 253.09375 219.246094 256.929688 214.234375 260.582031 209.054688 Z M 240.746094 234.050781 L 319.074219 234.050781 L 329.738281 296.21875 L 215.695312 259.929688 C 223.03125 253 231.839844 244.167969 240.746094 234.050781 Z M 331.164062 339.019531 L 162.859375 339.019531 L 189.34375 288.273438 L 336 334.9375 C 335.425781 337.253906 334.324219 338.761719 331.164062 339.019531 Z M 304.570312 174.066406 C 307.019531 174.066406 309.089844 175.796875 309.496094 178.214844 L 313.070312 199.058594 L 267.238281 199.058594 C 272.328125 190.957031 276.820312 182.570312 280.320312 174.066406 Z M 198.050781 59.097656 C 241.039062 58.214844 278.921875 96.082031 278.027344 139.074219 C 278.710938 185.285156 219.601562 243.601562 201.355469 259.539062 C 195.425781 264.085938 190.648438 254.699219 185.171875 250.625 C 161.851562 227.875 118.566406 181.753906 118.074219 139.074219 C 118.078125 94.976562 153.957031 59.097656 198.050781 59.097656 Z M 86.613281 178.1875 C 87.015625 175.796875 89.082031 174.066406 91.535156 174.066406 L 115.78125 174.066406 C 126.414062 199.933594 146.289062 224.757812 163.949219 243.46875 L 79.996094 216.757812 Z M 74.027344 251.546875 L 155.480469 277.496094 L 123.390625 339.019531 L 64.941406 339.019531 C 61.214844 338.753906 59.722656 336.195312 60.019531 333.167969 C 60.019531 333.167969 74.027344 251.546875 74.027344 251.546875 Z M 74.027344 251.546875 " fill-opacity="1" fill-rule="nonzero"/></g><path fill="#efefef" d="M 188.8125 203.445312 C 194.238281 207.707031 201.835938 207.726562 207.261719 203.472656 C 224.246094 190.160156 261.722656 155.21875 242.984375 118.328125 C 232.75 98.15625 212.585938 86.871094 191.714844 89.488281 C 166.832031 92.636719 148.066406 113.957031 148.066406 139.074219 C 148.066406 167.277344 173.589844 191.507812 188.8125 203.445312 Z M 192.976562 99.40625 C 209.75 97.308594 225.75 106.523438 234.074219 122.851562 C 249.449219 153.132812 216.132812 183.816406 201.09375 195.601562 C 199.308594 197.003906 196.78125 196.996094 194.976562 195.582031 C 183.875 186.871094 158.0625 163.9375 158.0625 139.074219 C 158.0625 118.980469 173.074219 101.925781 192.976562 99.40625 Z M 192.976562 99.40625 " fill-opacity="1" fill-rule="nonzero"/></svg>