<svg xmlns="http://www.w3.org/2000/svg" xmlns:xlink="http://www.w3.org/1999/xlink" width="529" zoomAndPan="magnify" viewBox="0 0 396.75 396.749985" height="529" preserveAspectRatio="xMidYMid meet" version="1.0"><defs><clipPath id="8ee6938bff"><path d="M 47.59375 47.59375 L 348.902344 47.59375 L 348.902344 348.902344 L 47.59375 348.902344 Z M 47.59375 47.59375 " clip-rule="nonzero"/></clipPath></defs><g clip-path="url(#8ee6938bff)"><path fill="#efefef" d="M 198.300781 47.59375 C 115.199219 47.59375 47.59375 115.199219 47.59375 198.300781 C 47.59375 281.398438 115.199219 349.007812 198.300781 349.007812 C 281.398438 349.007812 349.007812 281.398438 349.007812 198.300781 C 349.007812 115.199219 281.398438 47.59375 198.300781 47.59375 Z M 198.300781 328.914062 C 126.277344 328.914062 67.6875 270.324219 67.6875 198.300781 C 67.6875 126.277344 126.277344 67.6875 198.300781 67.6875 C 270.324219 67.6875 328.914062 126.277344 328.914062 198.300781 C 328.914062 270.324219 270.324219 328.914062 198.300781 328.914062 Z M 198.300781 328.914062 " fill-opacity="1" fill-rule="nonzero"/></g><path fill="#efefef" d="M 250.867188 188.253906 L 208.347656 188.253906 L 208.347656 145.734375 C 208.347656 140.183594 203.847656 135.6875 198.300781 135.6875 C 192.75 135.6875 188.253906 140.183594 188.253906 145.734375 L 188.253906 188.253906 L 145.734375 188.253906 C 140.183594 188.253906 135.6875 192.75 135.6875 198.300781 C 135.6875 203.847656 140.183594 208.347656 145.734375 208.347656 L 188.253906 208.347656 L 188.253906 250.867188 C 188.253906 256.414062 192.75 260.914062 198.300781 260.914062 C 203.847656 260.914062 208.347656 256.414062 208.347656 250.867188 L 208.347656 208.347656 L 250.867188 208.347656 C 256.414062 208.347656 260.914062 203.847656 260.914062 198.300781 C 260.914062 192.75 256.414062 188.253906 250.867188 188.253906 Z M 250.867188 188.253906 " fill-opacity="1" fill-rule="nonzero"/></svg>