<svg xmlns="http://www.w3.org/2000/svg" xmlns:xlink="http://www.w3.org/1999/xlink" width="529" zoomAndPan="magnify" viewBox="0 0 396.75 396.749985" height="529" preserveAspectRatio="xMidYMid meet" version="1.0"><defs><clipPath id="41cf2fa4e1"><path d="M 36.402344 36.402344 L 360.199219 36.402344 L 360.199219 360.199219 L 36.402344 360.199219 Z M 36.402344 36.402344 " clip-rule="nonzero"/></clipPath><clipPath id="eb52f31f89"><path d="M 166.332031 262.214844 L 230.269531 262.214844 L 230.269531 326.152344 L 166.332031 326.152344 Z M 166.332031 262.214844 " clip-rule="nonzero"/></clipPath><clipPath id="9d4bf1a5ee"><path d="M 198.300781 262.214844 C 180.644531 262.214844 166.332031 276.527344 166.332031 294.183594 C 166.332031 311.839844 180.644531 326.152344 198.300781 326.152344 C 215.957031 326.152344 230.269531 311.839844 230.269531 294.183594 C 230.269531 276.527344 215.957031 262.214844 198.300781 262.214844 Z M 198.300781 262.214844 " clip-rule="nonzero"/></clipPath><clipPath id="0ed070cc18"><path d="M 0.332031 0.214844 L 64.269531 0.214844 L 64.269531 64.152344 L 0.332031 64.152344 Z M 0.332031 0.214844 " clip-rule="nonzero"/></clipPath><clipPath id="e92868de34"><path d="M 32.300781 0.214844 C 14.644531 0.214844 0.332031 14.527344 0.332031 32.183594 C 0.332031 49.839844 14.644531 64.152344 32.300781 64.152344 C 49.957031 64.152344 64.269531 49.839844 64.269531 32.183594 C 64.269531 14.527344 49.957031 0.214844 32.300781 0.214844 Z M 32.300781 0.214844 " clip-rule="nonzero"/></clipPath><clipPath id="aa18953cba"><rect x="0" width="65" y="0" height="65"/></clipPath></defs><path fill="#efefef" d="M 198.300781 102.996094 C 167.757812 102.996094 142.824219 127.820312 142.824219 158.363281 C 142.824219 189.019531 167.757812 213.84375 198.300781 213.84375 C 228.84375 213.84375 253.777344 189.019531 253.777344 158.363281 C 253.777344 127.820312 228.84375 102.996094 198.300781 102.996094 Z M 198.300781 102.996094 " fill-opacity="1" fill-rule="nonzero"/><g clip-path="url(#41cf2fa4e1)"><path fill="#efefef" d="M 198.191406 36.511719 C 109.039062 36.511719 36.402344 109.039062 36.402344 198.300781 C 36.402344 247.949219 58.960938 292.417969 94.253906 322.097656 C 94.253906 322.097656 94.253906 322.097656 94.253906 322.207031 C 122.425781 345.84375 158.6875 360.089844 198.191406 360.089844 C 254.53125 360.089844 305.910156 331.597656 335.699219 283.78125 C 351.78125 258.09375 360.199219 228.628906 360.199219 198.300781 C 360.199219 167.972656 351.78125 138.398438 335.699219 112.816406 C 305.910156 65.003906 254.53125 36.511719 198.191406 36.511719 Z M 317.457031 272.339844 C 312.277344 280.652344 306.230469 287.992188 299.648438 294.898438 C 283.242188 261.222656 248.378906 238.773438 209.847656 238.773438 L 186.75 238.773438 C 159.984375 238.773438 134.835938 249.242188 115.949219 268.132812 C 108.070312 275.902344 101.808594 285.078125 96.953125 295.007812 C 72.882812 269.859375 57.988281 235.859375 57.988281 198.300781 C 57.988281 121.019531 120.914062 58.097656 198.191406 58.097656 C 247.085938 58.097656 291.554688 82.8125 317.457031 124.257812 C 331.273438 146.492188 338.613281 172.074219 338.613281 198.300781 C 338.613281 224.527344 331.273438 250.109375 317.457031 272.339844 Z M 317.457031 272.339844 " fill-opacity="1" fill-rule="nonzero"/></g><g clip-path="url(#eb52f31f89)"><g clip-path="url(#9d4bf1a5ee)"><g transform="matrix(1, 0, 0, 1, 166, 262)"><g clip-path="url(#aa18953cba)"><g clip-path="url(#0ed070cc18)"><g clip-path="url(#e92868de34)"><path fill="#efefef" d="M 0.332031 0.214844 L 64.269531 0.214844 L 64.269531 64.152344 L 0.332031 64.152344 Z M 0.332031 0.214844 " fill-opacity="1" fill-rule="nonzero"/></g></g></g></g></g></g></svg>