<svg xmlns="http://www.w3.org/2000/svg" xmlns:xlink="http://www.w3.org/1999/xlink" width="195" zoomAndPan="magnify" viewBox="0 0 146.25 315.749999" height="421" preserveAspectRatio="xMidYMid meet" version="1.0"><defs><clipPath id="452e16d2cc"><path d="M 13.363281 12.863281 L 131.808594 12.863281 L 131.808594 131.3125 L 13.363281 131.3125 Z M 13.363281 12.863281 " clip-rule="nonzero"/></clipPath><clipPath id="34ea7aa231"><path d="M 72.585938 12.863281 C 39.878906 12.863281 13.363281 39.378906 13.363281 72.089844 C 13.363281 104.796875 39.878906 131.3125 72.585938 131.3125 C 105.292969 131.3125 131.808594 104.796875 131.808594 72.089844 C 131.808594 39.378906 105.292969 12.863281 72.585938 12.863281 Z M 72.585938 12.863281 " clip-rule="nonzero"/></clipPath><clipPath id="2f34d27f76"><path d="M 0.363281 0.863281 L 118.808594 0.863281 L 118.808594 119.3125 L 0.363281 119.3125 Z M 0.363281 0.863281 " clip-rule="nonzero"/></clipPath><clipPath id="c2bb443adc"><path d="M 59.585938 0.863281 C 26.878906 0.863281 0.363281 27.378906 0.363281 60.089844 C 0.363281 92.796875 26.878906 119.3125 59.585938 119.3125 C 92.292969 119.3125 118.808594 92.796875 118.808594 60.089844 C 118.808594 27.378906 92.292969 0.863281 59.585938 0.863281 Z M 59.585938 0.863281 " clip-rule="nonzero"/></clipPath><clipPath id="fdd4de007b"><rect x="0" width="119" y="0" height="120"/></clipPath><clipPath id="4e425a8d83"><path d="M 0 0.992188 L 145.148438 0.992188 L 145.148438 146.425781 L 0 146.425781 Z M 0 0.992188 " clip-rule="nonzero"/></clipPath><clipPath id="04bd63dae9"><path d="M 28.105469 7 L 145.148438 7 L 145.148438 146.425781 L 28.105469 146.425781 Z M 28.105469 7 " clip-rule="nonzero"/></clipPath></defs><g clip-path="url(#452e16d2cc)"><g clip-path="url(#34ea7aa231)"><g transform="matrix(1, 0, 0, 1, 13, 12)"><g clip-path="url(#fdd4de007b)"><g clip-path="url(#2f34d27f76)"><g clip-path="url(#c2bb443adc)"><path fill="#9e1600" d="M 0.363281 0.863281 L 118.808594 0.863281 L 118.808594 119.3125 L 0.363281 119.3125 Z M 0.363281 0.863281 " fill-opacity="1" fill-rule="nonzero"/></g></g></g></g></g></g><path fill="#4d4d4d" d="M 84.660156 300.0625 L 78.464844 310.320312 C 76.089844 314.253906 70.382812 314.253906 68.007812 310.320312 L 61.8125 300.0625 L 61.8125 137.039062 L 84.660156 137.039062 L 84.660156 300.0625 " fill-opacity="1" fill-rule="nonzero"/><path fill="#808080" d="M 68.007812 310.320312 C 68.917969 311.832031 70.324219 312.75 71.84375 313.101562 L 71.84375 137.039062 L 65.542969 137.039062 L 65.542969 306.242188 L 68.007812 310.320312 " fill-opacity="1" fill-rule="nonzero"/><path fill="#1a1a1a" d="M 78.929688 137.039062 L 78.929688 309.550781 L 84.660156 300.0625 L 84.660156 137.039062 L 78.929688 137.039062 " fill-opacity="1" fill-rule="nonzero"/><g clip-path="url(#4e425a8d83)"><path fill="#ff3131" d="M 145.144531 73.5625 C 145.144531 113.644531 112.652344 146.136719 72.570312 146.136719 C 32.492188 146.136719 0 113.644531 0 73.5625 C 0 33.484375 32.492188 0.992188 72.570312 0.992188 C 112.652344 0.992188 145.144531 33.484375 145.144531 73.5625 " fill-opacity="1" fill-rule="nonzero"/></g><g clip-path="url(#04bd63dae9)"><path fill="#9e1600" d="M 101.5 7.019531 C 118.707031 20.292969 129.84375 41.054688 129.84375 64.46875 C 129.84375 104.550781 97.351562 137.039062 57.269531 137.039062 C 46.980469 137.039062 37.210938 134.871094 28.347656 131.011719 C 40.597656 140.457031 55.90625 146.136719 72.574219 146.136719 C 112.652344 146.136719 145.144531 113.644531 145.144531 73.5625 C 145.144531 43.773438 127.175781 18.199219 101.5 7.019531 " fill-opacity="1" fill-rule="nonzero"/></g><path fill="#ffd6cf" d="M 76.980469 48.851562 C 76.980469 64.164062 64.566406 76.578125 49.253906 76.578125 C 33.941406 76.578125 21.53125 64.164062 21.53125 48.851562 C 21.53125 33.539062 33.941406 21.128906 49.253906 21.128906 C 64.566406 21.128906 76.980469 33.539062 76.980469 48.851562 " fill-opacity="1" fill-rule="nonzero"/></svg>