<svg xmlns="http://www.w3.org/2000/svg" xmlns:xlink="http://www.w3.org/1999/xlink" width="279" zoomAndPan="magnify" viewBox="0 0 209.25 315.74999" height="421" preserveAspectRatio="xMidYMid meet" version="1.0"><defs><clipPath id="419ff3dade"><path d="M 0 0.4375 L 207.753906 0.4375 L 207.753906 315 L 0 315 Z M 0 0.4375 " clip-rule="nonzero"/></clipPath><clipPath id="67cf659606"><path d="M 60.988281 166.648438 L 146.890625 166.648438 L 146.890625 252.554688 L 60.988281 252.554688 Z M 60.988281 166.648438 " clip-rule="nonzero"/></clipPath><clipPath id="e1c0cbc619"><path d="M 103.9375 166.648438 C 80.21875 166.648438 60.988281 185.878906 60.988281 209.601562 C 60.988281 233.324219 80.21875 252.554688 103.9375 252.554688 C 127.660156 252.554688 146.890625 233.324219 146.890625 209.601562 C 146.890625 185.878906 127.660156 166.648438 103.9375 166.648438 Z M 103.9375 166.648438 " clip-rule="nonzero"/></clipPath><clipPath id="da05120717"><path d="M 0.988281 0.648438 L 86.890625 0.648438 L 86.890625 86.554688 L 0.988281 86.554688 Z M 0.988281 0.648438 " clip-rule="nonzero"/></clipPath><clipPath id="9e3f58a929"><path d="M 43.9375 0.648438 C 20.21875 0.648438 0.988281 19.878906 0.988281 43.601562 C 0.988281 67.324219 20.21875 86.554688 43.9375 86.554688 C 67.660156 86.554688 86.890625 67.324219 86.890625 43.601562 C 86.890625 19.878906 67.660156 0.648438 43.9375 0.648438 Z M 43.9375 0.648438 " clip-rule="nonzero"/></clipPath><clipPath id="48b44487f9"><rect x="0" width="87" y="0" height="87"/></clipPath></defs><g clip-path="url(#419ff3dade)"><path fill="#ff3131" d="M 177.265625 30.859375 C 197.667969 51.09375 207.871094 75.582031 207.871094 104.316406 C 207.871094 127.101562 192.824219 165.445312 162.726562 219.347656 C 148.441406 245.023438 133.988281 269 119.367188 291.273438 L 103.808594 314.738281 L 88.503906 291.273438 C 73.882812 269 59.34375 245.023438 44.890625 219.347656 C 14.964844 165.277344 0 126.933594 0 104.316406 C 0 75.582031 10.203125 51.09375 30.605469 30.859375 C 50.839844 10.625 75.242188 0.507812 103.808594 0.507812 C 132.542969 0.507812 157.03125 10.625 177.265625 30.859375 M 103.808594 49.734375 C 89.015625 49.734375 76.347656 55.007812 65.804688 65.546875 C 55.261719 76.089844 49.992188 88.757812 49.992188 103.550781 C 49.992188 118.515625 55.261719 131.269531 65.804688 141.808594 C 76.347656 152.351562 89.015625 157.625 103.808594 157.625 C 118.769531 157.625 131.523438 152.351562 142.066406 141.808594 C 152.609375 131.269531 157.878906 118.515625 157.878906 103.550781 C 157.878906 88.757812 152.609375 76.089844 142.066406 65.546875 C 131.523438 55.007812 118.769531 49.734375 103.808594 49.734375 " fill-opacity="1" fill-rule="nonzero"/></g><g clip-path="url(#67cf659606)"><g clip-path="url(#e1c0cbc619)"><g transform="matrix(1, 0, 0, 1, 60, 166)"><g clip-path="url(#48b44487f9)"><g clip-path="url(#da05120717)"><g clip-path="url(#9e3f58a929)"><path fill="#ff3131" d="M 0.988281 0.648438 L 86.890625 0.648438 L 86.890625 86.554688 L 0.988281 86.554688 Z M 0.988281 0.648438 " fill-opacity="1" fill-rule="nonzero"/></g></g></g></g></g></g></svg>