<svg xmlns="http://www.w3.org/2000/svg" xmlns:xlink="http://www.w3.org/1999/xlink" width="529" zoomAndPan="magnify" viewBox="0 0 396.75 396.749985" height="529" preserveAspectRatio="xMidYMid meet" version="1.0"><defs><clipPath id="cb981ddc0f"><path d="M 40.695312 47.59375 L 356 47.59375 L 356 348.902344 L 40.695312 348.902344 Z M 40.695312 47.59375 " clip-rule="nonzero"/></clipPath></defs><g clip-path="url(#cb981ddc0f)"><path fill="#efefef" d="M 197.953125 47.386719 C 111.21875 47.386719 40.519531 108.164062 40.519531 184.226562 C 40.519531 228.371094 64.710938 266.804688 101.855469 291.933594 C 101.804688 293.410156 101.910156 295.796875 99.980469 302.984375 C 97.566406 311.863281 92.710938 324.386719 82.867188 338.492188 L 75.867188 348.523438 L 88.097656 348.523438 C 130.472656 348.523438 154.988281 320.898438 158.796875 316.476562 C 171.402344 319.425781 184.382812 321.0625 197.953125 321.0625 C 284.691406 321.0625 355.386719 260.285156 355.386719 184.226562 C 355.386719 108.164062 284.691406 47.386719 197.953125 47.386719 Z M 197.953125 60.15625 C 278.761719 60.15625 342.621094 116.101562 342.621094 184.226562 C 342.621094 252.347656 278.761719 308.292969 197.953125 308.292969 C 183.953125 308.292969 170.757812 306.953125 158.367188 303.707031 L 154.398438 302.664062 L 151.796875 305.855469 C 151.796875 305.855469 131.976562 328.222656 100.328125 333.613281 C 106.066406 323.261719 110.304688 313.605469 112.261719 306.308594 C 115.027344 296.144531 115.078125 289.277344 115.078125 289.277344 L 115.078125 285.765625 L 112.128906 283.886719 C 75.867188 260.824219 53.285156 225.125 53.285156 184.226562 C 53.285156 116.101562 117.144531 60.15625 197.953125 60.15625 Z M 129.292969 170.492188 C 121.703125 170.492188 115.5625 176.632812 115.5625 184.226562 C 115.5625 191.816406 121.703125 197.957031 129.292969 197.957031 C 136.882812 197.957031 143.027344 191.816406 143.027344 184.226562 C 143.027344 176.632812 136.882812 170.492188 129.292969 170.492188 Z M 197.953125 170.492188 C 190.363281 170.492188 184.222656 176.632812 184.222656 184.226562 C 184.222656 191.816406 190.363281 197.957031 197.953125 197.957031 C 205.542969 197.957031 211.683594 191.816406 211.683594 184.226562 C 211.683594 176.632812 205.542969 170.492188 197.953125 170.492188 Z M 266.613281 170.492188 C 259.023438 170.492188 252.882812 176.632812 252.882812 184.226562 C 252.882812 191.816406 259.023438 197.957031 266.613281 197.957031 C 274.203125 197.957031 280.34375 191.816406 280.34375 184.226562 C 280.34375 176.632812 274.203125 170.492188 266.613281 170.492188 Z M 266.613281 170.492188 " fill-opacity="1" fill-rule="nonzero"/></g></svg>