<svg xmlns="http://www.w3.org/2000/svg" xmlns:xlink="http://www.w3.org/1999/xlink" width="529" zoomAndPan="magnify" viewBox="0 0 396.75 396.749985" height="529" preserveAspectRatio="xMidYMid meet" version="1.0"><defs><clipPath id="16264f7a6f"><path d="M 41 47.59375 L 355.703125 47.59375 L 355.703125 348.902344 L 41 348.902344 Z M 41 47.59375 " clip-rule="nonzero"/></clipPath><clipPath id="3339331d37"><path d="M 1 1 L 314.691406 1 L 314.691406 301.738281 L 1 301.738281 Z M 1 1 " clip-rule="nonzero"/></clipPath><clipPath id="2effe04919"><rect x="0" width="315" y="0" height="302"/></clipPath></defs><g clip-path="url(#16264f7a6f)"><g transform="matrix(1, 0, 0, 1, 41, 47)"><g clip-path="url(#2effe04919)"><g clip-path="url(#3339331d37)"><path fill="#efefef" d="M 242.851562 1.089844 L 282.039062 1.089844 C 300.050781 1.089844 314.691406 15.730469 314.691406 33.742188 L 314.691406 138.238281 C 314.691406 156.25 300.050781 170.890625 282.039062 170.890625 L 216.730469 170.890625 C 213.125 170.890625 210.199219 167.964844 210.199219 164.363281 L 210.199219 161.867188 L 208.644531 162.664062 L 171.011719 244.15625 L 171.011719 288.449219 C 171.011719 290.433594 170.109375 292.316406 168.558594 293.554688 C 168.152344 293.871094 158.445312 301.511719 144.890625 301.511719 C 129.777344 301.511719 105.703125 277.59375 105.703125 249.261719 C 105.703125 231.394531 112.105469 209.152344 116.101562 197.015625 L 35.417969 197.015625 C 17.835938 197.015625 2.878906 184.007812 1.351562 167.40625 C 0.503906 158.09375 3.613281 149.144531 9.710938 142.46875 C 4.332031 137.074219 1.207031 129.761719 1.207031 121.910156 C 1.207031 110.585938 7.6875 100.632812 17.328125 95.773438 C 15.328125 91.777344 14.269531 87.347656 14.269531 82.726562 C 14.269531 71.402344 20.761719 61.433594 30.402344 56.589844 C 27.425781 50.632812 26.546875 43.773438 28.050781 36.957031 C 30.976562 23.738281 43.425781 14.152344 57.648438 14.152344 L 177.542969 14.152344 C 186.621094 14.152344 201.25 17.089844 212.117188 22.679688 C 216.664062 10.101562 228.734375 1.089844 242.851562 1.089844 Z M 282.039062 157.832031 C 292.839844 157.832031 301.628906 149.039062 301.628906 138.238281 L 301.628906 33.742188 C 301.628906 22.941406 292.839844 14.152344 282.039062 14.152344 L 242.851562 14.152344 C 232.050781 14.152344 223.261719 22.941406 223.261719 33.742188 C 223.261719 36.382812 221.667969 38.773438 219.222656 39.777344 C 216.792969 40.769531 213.972656 40.222656 212.105469 38.367188 C 205.941406 32.1875 188.148438 27.210938 177.542969 27.210938 L 57.648438 27.210938 C 49.5 27.210938 42.417969 32.488281 40.8125 39.777344 C 39.519531 45.628906 41.242188 51.3125 45.539062 55.359375 C 47.394531 57.109375 48.0625 59.761719 47.265625 62.179688 C 46.453125 64.59375 44.324219 66.304688 41.804688 66.605469 C 33.5625 67.558594 27.332031 74.484375 27.332031 82.726562 C 27.332031 87.21875 29.175781 91.425781 32.492188 94.546875 C 34.347656 96.296875 35.011719 98.949219 34.214844 101.363281 C 33.40625 103.78125 31.277344 105.492188 28.757812 105.792969 C 20.5 106.746094 14.269531 113.667969 14.269531 121.910156 C 14.269531 127.996094 17.691406 133.535156 23.21875 136.34375 C 25.308594 137.429688 26.667969 139.542969 26.757812 141.910156 C 26.847656 144.273438 25.660156 146.492188 23.664062 147.722656 C 17.25 151.679688 13.667969 158.757812 14.363281 166.203125 C 15.277344 176.15625 24.523438 183.953125 35.417969 183.953125 L 125.296875 183.953125 C 127.4375 183.953125 129.449219 185.011719 130.675781 186.777344 C 131.890625 188.550781 132.152344 190.8125 131.394531 192.808594 C 131.277344 193.136719 118.765625 226.273438 118.765625 249.261719 C 118.765625 270.660156 137.730469 288.449219 144.890625 288.449219 C 150.519531 288.449219 155.234375 286.410156 157.949219 284.910156 L 157.949219 242.734375 C 157.949219 241.792969 158.160156 240.851562 158.550781 239.988281 L 197.738281 155.085938 C 198.363281 153.742188 199.421875 152.644531 200.742188 151.992188 L 213.804688 145.460938 C 215.839844 144.46875 218.242188 144.585938 220.152344 145.734375 C 222.085938 146.9375 223.261719 149.039062 223.261719 151.300781 L 223.261719 157.832031 Z M 282.039062 157.832031 " fill-opacity="1" fill-rule="nonzero"/></g><path fill="#efefef" d="M 216.730469 27.210938 C 220.332031 27.210938 223.261719 30.136719 223.261719 33.742188 L 223.261719 151.300781 C 223.261719 154.90625 220.332031 157.832031 216.730469 157.832031 C 213.125 157.832031 210.199219 154.90625 210.199219 151.300781 L 210.199219 33.742188 C 210.199219 30.136719 213.125 27.210938 216.730469 27.210938 Z M 216.730469 27.210938 " fill-opacity="1" fill-rule="nonzero"/></g></g></g></svg>