<svg xmlns="http://www.w3.org/2000/svg" xmlns:xlink="http://www.w3.org/1999/xlink" width="529" zoomAndPan="magnify" viewBox="0 0 396.75 396.749985" height="529" preserveAspectRatio="xMidYMid meet" version="1.0"><defs><clipPath id="04463e022d"><path d="M 40.902344 48 L 355 48 L 355 348.902344 L 40.902344 348.902344 Z M 40.902344 48 " clip-rule="nonzero"/></clipPath></defs><g clip-path="url(#04463e022d)"><path fill="#efefef" d="M 112.742188 348.511719 L 73.558594 348.511719 C 55.546875 348.511719 40.902344 333.867188 40.902344 315.855469 L 40.902344 211.363281 C 40.902344 193.347656 55.546875 178.707031 73.558594 178.707031 L 138.867188 178.707031 C 142.472656 178.707031 145.398438 181.632812 145.398438 185.238281 L 145.398438 187.734375 L 146.953125 186.9375 L 184.582031 105.441406 L 184.582031 61.152344 C 184.582031 59.164062 185.484375 57.285156 187.039062 56.042969 C 187.441406 55.730469 197.148438 48.089844 210.707031 48.089844 C 225.820312 48.089844 249.890625 72.003906 249.890625 100.335938 C 249.890625 118.203125 243.492188 140.449219 239.496094 152.582031 L 320.175781 152.582031 C 337.757812 152.582031 352.714844 165.59375 354.242188 182.195312 C 355.089844 191.507812 351.984375 200.453125 345.882812 207.128906 C 351.265625 212.523438 354.386719 219.839844 354.386719 227.6875 C 354.386719 239.011719 347.90625 248.964844 338.269531 253.824219 C 340.265625 257.824219 341.324219 262.25 341.324219 266.875 C 341.324219 278.199219 334.832031 288.164062 325.191406 293.011719 C 328.171875 298.96875 329.046875 305.824219 327.542969 312.644531 C 324.617188 325.863281 312.171875 335.449219 297.945312 335.449219 L 178.050781 335.449219 C 168.972656 335.449219 154.34375 332.511719 143.476562 326.917969 C 138.929688 339.5 126.863281 348.511719 112.742188 348.511719 Z M 73.558594 191.769531 C 62.753906 191.769531 53.964844 200.558594 53.964844 211.363281 L 53.964844 315.855469 C 53.964844 326.660156 62.753906 335.449219 73.558594 335.449219 L 112.742188 335.449219 C 123.542969 335.449219 132.335938 326.660156 132.335938 315.855469 C 132.335938 313.21875 133.929688 310.828125 136.371094 309.820312 C 138.800781 308.828125 141.621094 309.378906 143.488281 311.230469 C 149.65625 317.410156 167.445312 322.386719 178.050781 322.386719 L 297.945312 322.386719 C 306.097656 322.386719 313.175781 317.109375 314.78125 309.820312 C 316.074219 303.96875 314.351562 298.289062 310.054688 294.238281 C 308.199219 292.488281 307.535156 289.835938 308.332031 287.421875 C 309.140625 285.003906 311.269531 283.292969 313.789062 282.992188 C 322.03125 282.039062 328.261719 275.117188 328.261719 266.875 C 328.261719 262.382812 326.421875 258.175781 323.101562 255.054688 C 321.25 253.304688 320.582031 250.652344 321.378906 248.234375 C 322.1875 245.820312 324.316406 244.109375 326.839844 243.808594 C 335.09375 242.855469 341.324219 235.929688 341.324219 227.6875 C 341.324219 221.601562 337.902344 216.0625 332.378906 213.253906 C 330.289062 212.171875 328.929688 210.054688 328.835938 207.691406 C 328.746094 205.328125 329.933594 203.105469 331.933594 201.878906 C 338.347656 197.921875 341.925781 190.839844 341.234375 183.394531 C 340.320312 173.441406 331.070312 165.644531 320.175781 165.644531 L 230.300781 165.644531 C 228.15625 165.644531 226.144531 164.585938 224.917969 162.824219 C 223.703125 161.046875 223.441406 158.789062 224.199219 156.789062 C 224.316406 156.460938 236.828125 123.324219 236.828125 100.335938 C 236.828125 78.941406 217.863281 61.152344 210.707031 61.152344 C 205.078125 61.152344 200.363281 63.1875 197.644531 64.691406 L 197.644531 106.867188 C 197.644531 107.808594 197.433594 108.746094 197.042969 109.609375 L 157.859375 194.511719 C 157.230469 195.855469 156.171875 196.953125 154.855469 197.609375 L 141.792969 204.136719 C 139.753906 205.132812 137.351562 205.011719 135.445312 203.863281 C 133.511719 202.664062 132.335938 200.558594 132.335938 198.300781 L 132.335938 191.769531 Z M 73.558594 191.769531 " fill-opacity="1" fill-rule="nonzero"/></g><path fill="#efefef" d="M 138.867188 322.386719 C 135.261719 322.386719 132.335938 319.460938 132.335938 315.855469 L 132.335938 198.300781 C 132.335938 194.695312 135.261719 191.769531 138.867188 191.769531 C 142.472656 191.769531 145.398438 194.695312 145.398438 198.300781 L 145.398438 315.855469 C 145.398438 319.460938 142.472656 322.386719 138.867188 322.386719 Z M 138.867188 322.386719 " fill-opacity="1" fill-rule="nonzero"/></svg>