<svg xmlns="http://www.w3.org/2000/svg" xmlns:xlink="http://www.w3.org/1999/xlink" width="421" zoomAndPan="magnify" viewBox="0 0 315.75 315.749992" height="421" preserveAspectRatio="xMidYMid meet" version="1.0"><path fill="#efefef" d="M 183.386719 2.828125 C 166.328125 -0.0117188 148.914062 -0.0117188 131.855469 2.828125 L 129.863281 37.859375 C 116.664062 40.921875 104.0625 46.140625 92.566406 53.308594 L 66.382812 29.945312 C 52.3125 40 40 52.3125 29.945312 66.382812 L 53.308594 92.566406 C 46.140625 104.0625 40.921875 116.664062 37.859375 129.863281 L 2.828125 131.855469 C -0.0117188 148.914062 -0.0117188 166.328125 2.828125 183.386719 L 37.859375 185.378906 C 40.921875 198.578125 46.140625 211.179688 53.308594 222.675781 L 29.945312 248.859375 C 40 262.929688 52.3125 275.242188 66.382812 285.296875 L 92.566406 261.933594 C 104.0625 269.101562 116.664062 274.324219 129.863281 277.382812 L 131.855469 312.414062 C 148.914062 315.253906 166.328125 315.253906 183.386719 312.414062 L 185.378906 277.382812 C 198.578125 274.324219 211.179688 269.101562 222.675781 261.933594 L 248.859375 285.296875 C 262.929688 275.242188 275.242188 262.929688 285.296875 248.859375 L 261.933594 222.675781 C 269.101562 211.179688 274.324219 198.578125 277.382812 185.378906 L 312.414062 183.386719 C 315.253906 166.328125 315.253906 148.914062 312.414062 131.855469 L 277.382812 129.863281 C 274.324219 116.664062 269.101562 104.0625 261.933594 92.566406 L 285.296875 66.382812 C 275.242188 52.3125 262.929688 40 248.859375 29.945312 L 222.675781 53.308594 C 211.179688 46.140625 198.578125 40.921875 185.378906 37.859375 Z M 157.621094 84.242188 C 198.121094 84.242188 231 117.125 231 157.621094 C 231 198.121094 198.121094 231 157.621094 231 C 117.125 231 84.242188 198.121094 84.242188 157.621094 C 84.242188 117.125 117.125 84.242188 157.621094 84.242188 Z M 157.621094 84.242188 " fill-opacity="1" fill-rule="evenodd"/></svg>