<svg xmlns="http://www.w3.org/2000/svg" xmlns:xlink="http://www.w3.org/1999/xlink" width="529" zoomAndPan="magnify" viewBox="0 0 396.75 396.749985" height="529" preserveAspectRatio="xMidYMid meet" version="1.0"><defs><clipPath id="3d751661c2"><path d="M 172.824219 43.339844 L 293.351562 43.339844 L 293.351562 146.945312 L 172.824219 146.945312 Z M 172.824219 43.339844 " clip-rule="nonzero"/></clipPath><clipPath id="e430f1ed20"><path d="M 172.046875 32.269531 L 297.863281 32.269531 L 297.863281 141.695312 L 172.046875 141.695312 Z M 172.046875 32.269531 " clip-rule="nonzero"/></clipPath><clipPath id="4bc5484584"><path d="M 8.5 8.5 L 387.757812 8.5 L 387.757812 387.757812 L 8.5 387.757812 Z M 8.5 8.5 " clip-rule="nonzero"/></clipPath><clipPath id="c5925d1d64"><path d="M 198.300781 8.5 C 93.476562 8.5 8.5 93.476562 8.5 198.300781 C 8.5 303.121094 93.476562 388.097656 198.300781 388.097656 C 303.121094 388.097656 388.097656 303.121094 388.097656 198.300781 C 388.097656 93.476562 303.121094 8.5 198.300781 8.5 Z M 198.300781 8.5 " clip-rule="nonzero"/></clipPath><linearGradient x1="-0.0000000192638" gradientTransform="matrix(7.91333, 0, 0, 7.91333, 0.000000152441, -0.0000207542)" y1="32" x2="63.942741" gradientUnits="userSpaceOnUse" y2="32" id="6f436d85da"><stop stop-opacity="1" stop-color="rgb(96.469116%, 73.728943%, 17.649841%)" offset="0"/><stop stop-opacity="1" stop-color="rgb(96.417236%, 73.58551%, 17.6651%)" offset="0.015625"/><stop stop-opacity="1" stop-color="rgb(96.313477%, 73.297119%, 17.695618%)" offset="0.03125"/><stop stop-opacity="1" stop-color="rgb(96.208191%, 73.008728%, 17.726135%)" offset="0.046875"/><stop stop-opacity="1" stop-color="rgb(96.104431%, 72.721863%, 17.756653%)" offset="0.0625"/><stop stop-opacity="1" stop-color="rgb(96.000671%, 72.433472%, 17.78717%)" offset="0.078125"/><stop stop-opacity="1" stop-color="rgb(95.896912%, 72.145081%, 17.817688%)" offset="0.09375"/><stop stop-opacity="1" stop-color="rgb(95.791626%, 71.858215%, 17.848206%)" offset="0.109375"/><stop stop-opacity="1" stop-color="rgb(95.687866%, 71.569824%, 17.878723%)" offset="0.125"/><stop stop-opacity="1" stop-color="rgb(95.584106%, 71.281433%, 17.909241%)" offset="0.140625"/><stop stop-opacity="1" stop-color="rgb(95.480347%, 70.994568%, 17.939758%)" offset="0.15625"/><stop stop-opacity="1" stop-color="rgb(95.375061%, 70.706177%, 17.970276%)" offset="0.171875"/><stop stop-opacity="1" stop-color="rgb(95.271301%, 70.417786%, 18.000793%)" offset="0.1875"/><stop stop-opacity="1" stop-color="rgb(95.167542%, 70.13092%, 18.031311%)" offset="0.203125"/><stop stop-opacity="1" stop-color="rgb(95.063782%, 69.842529%, 18.061829%)" offset="0.21875"/><stop stop-opacity="1" stop-color="rgb(94.958496%, 69.554138%, 18.092346%)" offset="0.234375"/><stop stop-opacity="1" stop-color="rgb(94.854736%, 69.267273%, 18.122864%)" offset="0.25"/><stop stop-opacity="1" stop-color="rgb(94.750977%, 68.978882%, 18.153381%)" offset="0.265625"/><stop stop-opacity="1" stop-color="rgb(94.647217%, 68.690491%, 18.183899%)" offset="0.28125"/><stop stop-opacity="1" stop-color="rgb(94.543457%, 68.403625%, 18.215942%)" offset="0.296875"/><stop stop-opacity="1" stop-color="rgb(94.438171%, 68.115234%, 18.24646%)" offset="0.3125"/><stop stop-opacity="1" stop-color="rgb(94.334412%, 67.826843%, 18.276978%)" offset="0.328125"/><stop stop-opacity="1" stop-color="rgb(94.230652%, 67.539978%, 18.307495%)" offset="0.34375"/><stop stop-opacity="1" stop-color="rgb(94.126892%, 67.251587%, 18.338013%)" offset="0.359375"/><stop stop-opacity="1" stop-color="rgb(94.021606%, 66.963196%, 18.36853%)" offset="0.375"/><stop stop-opacity="1" stop-color="rgb(93.917847%, 66.676331%, 18.399048%)" offset="0.390625"/><stop stop-opacity="1" stop-color="rgb(93.814087%, 66.387939%, 18.429565%)" offset="0.40625"/><stop stop-opacity="1" stop-color="rgb(93.710327%, 66.099548%, 18.460083%)" offset="0.421875"/><stop stop-opacity="1" stop-color="rgb(93.605042%, 65.812683%, 18.490601%)" offset="0.4375"/><stop stop-opacity="1" stop-color="rgb(93.501282%, 65.524292%, 18.521118%)" offset="0.453125"/><stop stop-opacity="1" stop-color="rgb(93.397522%, 65.235901%, 18.551636%)" offset="0.46875"/><stop stop-opacity="1" stop-color="rgb(93.293762%, 64.949036%, 18.582153%)" offset="0.484375"/><stop stop-opacity="1" stop-color="rgb(93.188477%, 64.660645%, 18.612671%)" offset="0.5"/><stop stop-opacity="1" stop-color="rgb(93.084717%, 64.373779%, 18.643188%)" offset="0.515625"/><stop stop-opacity="1" stop-color="rgb(92.980957%, 64.085388%, 18.673706%)" offset="0.53125"/><stop stop-opacity="1" stop-color="rgb(92.877197%, 63.796997%, 18.704224%)" offset="0.546875"/><stop stop-opacity="1" stop-color="rgb(92.771912%, 63.510132%, 18.734741%)" offset="0.5625"/><stop stop-opacity="1" stop-color="rgb(92.668152%, 63.221741%, 18.765259%)" offset="0.578125"/><stop stop-opacity="1" stop-color="rgb(92.564392%, 62.93335%, 18.797302%)" offset="0.59375"/><stop stop-opacity="1" stop-color="rgb(92.460632%, 62.646484%, 18.82782%)" offset="0.609375"/><stop stop-opacity="1" stop-color="rgb(92.355347%, 62.358093%, 18.858337%)" offset="0.625"/><stop stop-opacity="1" stop-color="rgb(92.251587%, 62.069702%, 18.888855%)" offset="0.640625"/><stop stop-opacity="1" stop-color="rgb(92.147827%, 61.782837%, 18.919373%)" offset="0.65625"/><stop stop-opacity="1" stop-color="rgb(92.044067%, 61.494446%, 18.94989%)" offset="0.671875"/><stop stop-opacity="1" stop-color="rgb(91.940308%, 61.206055%, 18.980408%)" offset="0.6875"/><stop stop-opacity="1" stop-color="rgb(91.835022%, 60.919189%, 19.010925%)" offset="0.703125"/><stop stop-opacity="1" stop-color="rgb(91.731262%, 60.630798%, 19.041443%)" offset="0.71875"/><stop stop-opacity="1" stop-color="rgb(91.627502%, 60.342407%, 19.07196%)" offset="0.734375"/><stop stop-opacity="1" stop-color="rgb(91.523743%, 60.055542%, 19.102478%)" offset="0.75"/><stop stop-opacity="1" stop-color="rgb(91.418457%, 59.767151%, 19.132996%)" offset="0.765625"/><stop stop-opacity="1" stop-color="rgb(91.314697%, 59.47876%, 19.163513%)" offset="0.78125"/><stop stop-opacity="1" stop-color="rgb(91.210938%, 59.191895%, 19.194031%)" offset="0.796875"/><stop stop-opacity="1" stop-color="rgb(91.107178%, 58.903503%, 19.224548%)" offset="0.8125"/><stop stop-opacity="1" stop-color="rgb(91.001892%, 58.615112%, 19.255066%)" offset="0.828125"/><stop stop-opacity="1" stop-color="rgb(90.898132%, 58.328247%, 19.285583%)" offset="0.84375"/><stop stop-opacity="1" stop-color="rgb(90.794373%, 58.039856%, 19.316101%)" offset="0.859375"/><stop stop-opacity="1" stop-color="rgb(90.690613%, 57.751465%, 19.346619%)" offset="0.875"/><stop stop-opacity="1" stop-color="rgb(90.585327%, 57.4646%, 19.378662%)" offset="0.890625"/><stop stop-opacity="1" stop-color="rgb(90.481567%, 57.176208%, 19.40918%)" offset="0.90625"/><stop stop-opacity="1" stop-color="rgb(90.377808%, 56.887817%, 19.439697%)" offset="0.921875"/><stop stop-opacity="1" stop-color="rgb(90.274048%, 56.600952%, 19.470215%)" offset="0.9375"/><stop stop-opacity="1" stop-color="rgb(90.168762%, 56.312561%, 19.500732%)" offset="0.953125"/><stop stop-opacity="1" stop-color="rgb(90.065002%, 56.02417%, 19.53125%)" offset="0.96875"/><stop stop-opacity="1" stop-color="rgb(89.961243%, 55.737305%, 19.561768%)" offset="0.984375"/><stop stop-opacity="1" stop-color="rgb(89.857483%, 55.448914%, 19.592285%)" offset="1"/></linearGradient><clipPath id="2d0b48ac6f"><path d="M 128 257 L 336 257 L 336 377 L 128 377 Z M 128 257 " clip-rule="nonzero"/></clipPath><clipPath id="862b04f3d9"><path d="M 117.171875 334.46875 L 315.613281 238.660156 L 352.441406 314.929688 L 153.996094 410.742188 Z M 117.171875 334.46875 " clip-rule="nonzero"/></clipPath><clipPath id="7140836cd2"><path d="M 117.171875 334.46875 L 315.613281 238.660156 L 352.441406 314.929688 L 153.996094 410.742188 Z M 117.171875 334.46875 " clip-rule="nonzero"/></clipPath><clipPath id="0ae5c8d3d4"><path d="M 117.171875 334.46875 L 315.613281 238.660156 L 352.441406 314.929688 L 153.996094 410.742188 Z M 117.171875 334.46875 " clip-rule="nonzero"/></clipPath><clipPath id="45ea665563"><path d="M 295 264 L 327 264 L 327 318 L 295 318 Z M 295 264 " clip-rule="nonzero"/></clipPath><clipPath id="3c6c5d7d82"><path d="M 117.171875 334.46875 L 315.613281 238.660156 L 352.441406 314.929688 L 153.996094 410.742188 Z M 117.171875 334.46875 " clip-rule="nonzero"/></clipPath><clipPath id="c94e566f7f"><path d="M 117.171875 334.46875 L 315.613281 238.660156 L 352.441406 314.929688 L 153.996094 410.742188 Z M 117.171875 334.46875 " clip-rule="nonzero"/></clipPath><clipPath id="b1928a2351"><path d="M 117.171875 334.46875 L 315.613281 238.660156 L 352.441406 314.929688 L 153.996094 410.742188 Z M 117.171875 334.46875 " clip-rule="nonzero"/></clipPath><clipPath id="eebab59214"><path d="M 135 262 L 331 262 L 331 374 L 135 374 Z M 135 262 " clip-rule="nonzero"/></clipPath><clipPath id="d69182fe7e"><path d="M 117.171875 334.46875 L 315.613281 238.660156 L 352.441406 314.929688 L 153.996094 410.742188 Z M 117.171875 334.46875 " clip-rule="nonzero"/></clipPath><clipPath id="7f97d9c0cd"><path d="M 117.171875 334.46875 L 315.613281 238.660156 L 352.441406 314.929688 L 153.996094 410.742188 Z M 117.171875 334.46875 " clip-rule="nonzero"/></clipPath><clipPath id="567e4e657a"><path d="M 117.171875 334.46875 L 315.613281 238.660156 L 352.441406 314.929688 L 153.996094 410.742188 Z M 117.171875 334.46875 " clip-rule="nonzero"/></clipPath></defs><g clip-path="url(#3d751661c2)"><path fill="#4ca538" d="M 246.277344 56.378906 C 235.769531 46.84375 234.707031 70.515625 249.890625 69.550781 C 249.890625 69.550781 252.351562 61.894531 246.277344 56.378906 Z M 221.574219 87.753906 C 221.574219 87.753906 215.242188 92.363281 218.789062 101.304688 C 224.925781 116.757812 237.738281 97.816406 221.574219 87.753906 Z M 277.304688 78.003906 C 280.207031 88.046875 292.707031 87.914062 292.707031 87.914062 C 297.355469 73.09375 272.257812 60.546875 277.304688 78.003906 Z M 231.320312 143.632812 C 234.933594 153.417969 247.320312 139.515625 236.480469 128.441406 C 236.480469 128.441406 227.707031 133.851562 231.320312 143.632812 Z M 261.277344 104.703125 C 254.480469 112.660156 261.488281 122.988281 261.488281 122.988281 C 276.441406 118.679688 273.085938 90.875 261.277344 104.703125 Z M 192.089844 111.707031 C 187.914062 131.210938 207.832031 117.113281 201.898438 104.242188 C 201.898438 104.242188 193.222656 106.414062 192.089844 111.707031 Z M 195.765625 43.503906 C 189.1875 43.601562 189.589844 52.03125 189.589844 52.03125 C 197.261719 58.5 216.242188 43.207031 195.765625 43.503906 Z M 186.671875 75.320312 C 189.507812 94.113281 166.753906 96.710938 174.539062 82.011719 C 179.042969 73.515625 186.671875 75.320312 186.671875 75.320312 " fill-opacity="1" fill-rule="nonzero"/></g><g clip-path="url(#e430f1ed20)"><path fill="#2f6d30" d="M 301.441406 64.113281 C 300.15625 73.351562 298.121094 81.84375 295.382812 89.359375 C 291.9375 98.828125 287.359375 106.765625 281.777344 112.949219 C 272.453125 123.292969 260.28125 128.851562 245.601562 129.472656 C 244.753906 129.507812 243.914062 129.523438 243.082031 129.523438 C 240.875 129.523438 238.722656 129.394531 236.625 129.144531 C 236.660156 131.398438 236.691406 138.496094 235.832031 141.609375 L 235.582031 141.539062 C 236.4375 138.441406 236.402344 131.320312 236.367188 129.113281 C 226.105469 127.824219 217.210938 123.515625 209.84375 116.234375 C 206.691406 113.121094 203.816406 109.445312 201.234375 105.25 C 199.675781 107.21875 196.222656 111.988281 195.832031 116.097656 L 195.574219 116.074219 C 195.976562 111.847656 199.546875 106.957031 201.089844 105.015625 C 198.824219 101.304688 196.785156 97.195312 194.992188 92.695312 C 193.578125 89.136719 192.308594 85.335938 191.199219 81.320312 C 189.195312 80.058594 187.339844 78.644531 185.632812 77.078125 C 183.503906 80.175781 178.972656 86.539062 176.804688 87.914062 L 176.664062 87.695312 C 178.773438 86.359375 183.324219 79.96875 185.441406 76.898438 C 184.132812 75.679688 182.910156 74.378906 181.78125 72.980469 C 169.339844 57.589844 172.320312 33.136719 172.453125 32.269531 L 176.535156 32.890625 C 176.507812 33.085938 173.714844 56.46875 185.015625 70.417969 C 186.398438 72.128906 187.941406 73.683594 189.636719 75.09375 C 189.003906 72.300781 188.441406 69.421875 187.953125 66.457031 C 185.222656 49.953125 185.621094 32.824219 185.636719 32.269531 L 189.765625 32.40625 C 189.761719 32.492188 189.585938 42.332031 190.257812 51.023438 C 191.867188 49.425781 195.679688 46.851562 200.371094 47.820312 L 200.320312 48.074219 C 195.40625 47.058594 191.675781 49.953125 190.285156 51.386719 C 190.625 55.679688 191.171875 60.621094 192.039062 65.867188 C 192.695312 69.816406 193.578125 74.15625 194.761719 78.636719 C 200.859375 82.113281 208.394531 84.148438 217.292969 84.699219 C 229.453125 85.453125 238.796875 82.574219 245.074219 76.148438 C 246.984375 74.1875 248.539062 71.980469 249.804688 69.628906 C 249.5 69.285156 242.332031 61.164062 241.304688 58.070312 L 241.527344 57.996094 C 242.496094 60.910156 249.25 68.644531 249.921875 69.40625 C 256.449219 57.023438 255 40.648438 254.460938 34.601562 C 254.253906 32.246094 258.429688 32.300781 258.429688 32.269531 C 258.421875 32.5 258.5 33.382812 258.574219 34.238281 C 259.257812 41.941406 261.339844 65.386719 248.03125 79.023438 C 241.792969 85.410156 233.0625 88.730469 222.035156 88.925781 C 222.910156 92.125 225.144531 100.691406 224.757812 103.421875 L 224.5 103.386719 C 224.878906 100.71875 222.617188 92.054688 221.765625 88.929688 C 221.511719 88.933594 221.257812 88.933594 221.003906 88.933594 C 219.710938 88.933594 218.390625 88.894531 217.039062 88.808594 C 209.15625 88.320312 202.238281 86.734375 196.328125 84.0625 C 199.675781 94.667969 204.828125 105.480469 212.757812 113.316406 C 221.402344 121.855469 232.394531 125.90625 245.425781 125.355469 C 251.246094 125.109375 256.632812 124.023438 261.566406 122.113281 C 261.761719 118.957031 262.679688 108.746094 266.332031 105.433594 L 266.507812 105.625 C 263.015625 108.789062 262.058594 118.765625 261.835938 122.011719 C 268.257812 119.472656 273.898438 115.527344 278.710938 110.195312 C 284.652344 103.605469 288.828125 95.441406 291.761719 87.171875 C 288.988281 85.054688 281.433594 78.910156 280.707031 74.199219 L 280.960938 74.160156 C 281.660156 78.675781 289.058594 84.757812 291.851562 86.910156 C 294.722656 78.734375 296.386719 70.472656 297.351562 63.546875 C 299.472656 48.261719 298.734375 33.167969 298.726562 33.042969 L 302.847656 32.785156 C 302.878906 33.300781 303.621094 48.417969 301.441406 64.113281 " fill-opacity="1" fill-rule="nonzero"/></g><g clip-path="url(#4bc5484584)"><g clip-path="url(#c5925d1d64)"><path stroke-linecap="butt" transform="matrix(0.749528, 0, 0, 0.749528, 8.498589, 8.49856)" fill="none" stroke-linejoin="miter" d="M 253.22909 0.00192103 C 113.375376 0.00192103 0.00188287 113.375415 0.00188287 253.229129 C 0.00188287 393.077631 113.375376 506.451125 253.22909 506.451125 C 393.077593 506.451125 506.451086 393.077631 506.451086 253.229129 C 506.451086 113.375415 393.077593 0.00192103 253.22909 0.00192103 Z M 253.22909 0.00192103 " stroke="url(#6f436d85da)" stroke-width="90" stroke-miterlimit="4"/></g></g><g clip-path="url(#2d0b48ac6f)"><g clip-path="url(#862b04f3d9)"><g clip-path="url(#7140836cd2)"><g clip-path="url(#0ae5c8d3d4)"><path fill="#f6bc2d" d="M 308.210938 257.097656 C 312.628906 257.71875 327.960938 264.257812 334.226562 292.421875 C 340.488281 320.582031 320.890625 326.351562 317.78125 327.160156 C 304.707031 331.011719 261.585938 343.109375 260.101562 344.109375 C 258.621094 345.113281 255.574219 342.851562 255.574219 342.851562 C 255.574219 342.851562 204.546875 355.03125 202.566406 355.949219 C 200.585938 356.867188 197.730469 355.132812 197.730469 355.132812 L 162.308594 363.929688 C 162.308594 363.929688 160.890625 370.53125 157.210938 372.59375 C 153.527344 374.65625 146.953125 376.265625 143.203125 376.210938 C 139.449219 376.160156 132.445312 366.078125 129.539062 352.5625 C 126.632812 339.042969 131.296875 329.992188 132.074219 328.515625 C 132.847656 327.035156 140.109375 324.351562 145.414062 323.714844 C 147.691406 323.441406 152.109375 328.816406 152.109375 328.816406 L 184.671875 316.15625 C 184.671875 316.15625 185.667969 309.820312 188.496094 308.464844 C 191.320312 307.113281 239.148438 288.234375 239.148438 288.234375 C 239.148438 288.234375 240.671875 283.949219 243.15625 282.601562 C 245.636719 281.253906 301.570312 256.160156 308.210938 257.097656 Z M 308.210938 257.097656 " fill-opacity="1" fill-rule="nonzero"/></g></g></g></g><g clip-path="url(#45ea665563)"><g clip-path="url(#3c6c5d7d82)"><g clip-path="url(#c94e566f7f)"><g clip-path="url(#b1928a2351)"><path fill="#fff6e1" d="M 301.472656 264.941406 C 290.242188 271.242188 297.367188 294.375 305.324219 307.183594 C 313.285156 319.992188 321.074219 317.324219 323.332031 315.789062 C 325.035156 314.460938 329.226562 306.480469 323.40625 289.363281 C 317.582031 272.238281 304.324219 264.484375 301.472656 264.941406 Z M 321.433594 299.414062 C 321.632812 300.964844 304.398438 293.164062 304.179688 291.148438 C 303.957031 289.140625 321.113281 296.921875 321.433594 299.414062 Z M 321.257812 290.671875 C 321.019531 292.730469 297.898438 280.238281 297.925781 278.109375 C 297.953125 275.972656 321.496094 288.617188 321.257812 290.671875 Z M 321.257812 290.671875 " fill-opacity="1" fill-rule="nonzero"/></g></g></g></g><g clip-path="url(#eebab59214)"><g clip-path="url(#d69182fe7e)"><g clip-path="url(#7f97d9c0cd)"><g clip-path="url(#567e4e657a)"><path fill="#d35b38" d="M 293.078125 263.945312 C 292.875 264.445312 288.050781 272.675781 290.929688 290.308594 C 293.8125 307.941406 301.546875 321.898438 314.714844 324.652344 C 316.9375 325.957031 314.265625 326.46875 309.773438 324.464844 C 305.277344 322.453125 297.148438 318.898438 290.910156 298.203125 C 284.667969 277.511719 290.648438 265.640625 291.398438 263.769531 C 292.144531 261.898438 294.15625 261.253906 293.078125 263.945312 Z M 322.414062 276.410156 C 313.957031 261.472656 305.480469 264.132812 304.957031 263.820312 C 303.953125 263.820312 302.378906 265.101562 307.421875 265.523438 C 311.292969 265.847656 317.84375 269.09375 324.550781 284.035156 C 331.261719 298.972656 328.910156 305.003906 328.617188 307.804688 C 328.324219 310.605469 328.640625 313.8125 329.660156 310.292969 C 331.503906 301.847656 330.867188 291.34375 322.414062 276.410156 Z M 238.347656 319.597656 C 240.308594 325.1875 244.21875 329.851562 242.285156 325.199219 C 236.292969 315.859375 236.429688 296.707031 239.144531 288.230469 L 237.894531 288.722656 C 233.480469 299.367188 236.386719 314.007812 238.347656 319.597656 Z M 253.660156 343.308594 L 255.578125 342.847656 C 253.972656 342.269531 249.429688 336.941406 248.242188 336.527344 C 247.058594 336.113281 250.5625 340.878906 253.660156 343.308594 Z M 185.503906 329.8125 C 185.835938 329.035156 183.410156 321.078125 184.667969 316.152344 L 183.433594 316.328125 C 182.246094 325.121094 185.171875 330.59375 185.503906 329.8125 Z M 189.902344 342.371094 C 187.921875 340.117188 189.480469 350.070312 195.90625 355.554688 L 197.730469 355.132812 C 197.539062 355.019531 197.347656 354.886719 197.160156 354.746094 C 194.589844 352.789062 191.902344 348.070312 189.902344 342.371094 Z M 147.714844 330.933594 C 142.046875 332.085938 138.453125 340.6875 145.101562 353.03125 C 151.746094 365.378906 159.855469 364.601562 160.347656 364.617188 C 161.527344 364.652344 161.359375 363.832031 159.8125 363.253906 C 156.875 362.15625 153.640625 362.714844 147.449219 354.476562 C 141.253906 346.242188 142.519531 336.875 144.816406 334.105469 C 147.113281 331.339844 148.820312 331.027344 147.714844 330.933594 Z M 138.074219 349.503906 C 134.691406 332.191406 139.773438 327.582031 139.726562 326.960938 C 140.25 325.8125 138.96875 324.289062 136.789062 330.917969 C 133.875 339.523438 135.488281 348.824219 140.605469 360.523438 C 145.921875 371.644531 151.890625 374.195312 152.566406 372.730469 C 153.246094 371.265625 141.453125 366.816406 138.074219 349.503906 Z M 138.074219 349.503906 " fill-opacity="1" fill-rule="nonzero"/></g></g></g></g></svg>